 <svg width="36" height="32" viewBox="0 0 36 32" fill="none" xmlns="http://www.w3.org/2000/svg">
                        <path
                            d="M22.08 23.0666C21.1875 24.3357 20.215 25.5465 19.1683 26.6916C21.955 29.3966 24.5483 30.6633 25.985 29.8316C27.425 29.0016 27.6233 26.1233 26.675 22.3583C25.2533 22.675 23.7083 22.915 22.08 23.0666ZM19.8966 23.2116C18.6327 23.264 17.3672 23.264 16.1033 23.2116C16.7316 24.0316 17.3666 24.7916 18 25.485C18.6333 24.7916 19.2666 24.0316 19.8966 23.2116ZM28.2966 10.055C32.7383 11.3283 35.6383 13.445 35.6383 16C35.6383 18.555 32.7383 20.6716 28.2966 21.945C29.4133 26.4283 29.0316 29.9983 26.82 31.275C24.6066 32.5533 21.3233 31.1 18 27.8916C14.6766 31.1 11.3933 32.5533 9.17997 31.275C6.9683 29.9983 6.58497 26.4283 7.7033 21.945C3.26163 20.6716 0.361633 18.555 0.361633 16C0.361633 13.445 3.26163 11.3283 7.7033 10.055C6.58663 5.57164 6.9683 2.00164 9.17997 0.724973C11.3933 -0.55336 14.6766 0.899973 18 4.10831C21.3233 0.899973 24.6066 -0.55336 26.82 0.724973C29.0316 2.00164 29.415 5.57164 28.2966 10.055ZM26.675 9.64164C27.625 5.87497 27.425 2.99831 25.9866 2.16831C24.5483 1.33664 21.955 2.60331 19.17 5.30831C20.155 6.37997 21.135 7.59831 22.08 8.93331C23.71 9.08331 25.2533 9.32331 26.675 9.64164ZM9.32497 22.3583C8.37497 26.125 8.57497 29.0016 10.0133 29.8316C11.4516 30.6633 14.045 29.3966 16.83 26.6916C15.7839 25.5464 14.8119 24.3356 13.92 23.0666C12.3748 22.9285 10.84 22.6919 9.32497 22.3583ZM16.1033 8.78831C17.3672 8.73598 18.6327 8.73598 19.8966 8.78831C19.2975 8.00408 18.6647 7.24615 18 6.51664C17.3666 7.20997 16.7333 7.96997 16.1033 8.78997V8.78831ZM13.92 8.93331C14.813 7.66421 15.786 6.45341 16.8333 5.30831C14.045 2.60331 11.45 1.33664 10.015 2.16831C8.57497 2.99831 8.37663 5.87664 9.32497 9.64164C10.7466 9.32497 12.2916 9.08497 13.92 8.93331ZM21.1566 21.4666C22.343 19.7256 23.3976 17.8983 24.3116 16C23.3976 14.1017 22.343 12.2744 21.1566 10.5333C19.0551 10.376 16.9448 10.376 14.8433 10.5333C13.6569 12.2744 12.6023 14.1017 11.6883 16C12.6023 17.8983 13.6569 19.7256 14.8433 21.4666C16.9448 21.624 19.0551 21.624 21.1566 21.4666ZM23.2966 21.2483C24.3216 21.115 25.2966 20.9433 26.2133 20.7416C25.9135 19.8012 25.5732 18.8743 25.1933 17.9633C24.6066 19.0834 23.9739 20.1788 23.2966 21.2466V21.2483ZM12.7033 10.75C11.6783 10.8833 10.7033 11.055 9.78663 11.2566C10.07 12.15 10.41 13.08 10.8066 14.035C11.3933 12.9148 12.0261 11.8195 12.7033 10.7516V10.75ZM9.78663 20.74C10.7033 20.9416 11.6783 21.1116 12.7033 21.2466C12.0261 20.1788 11.3933 19.0834 10.8066 17.9633C10.41 18.9166 10.07 19.8466 9.78663 20.74ZM8.15663 20.3316C8.59163 18.9416 9.15663 17.485 9.83997 15.9983C9.15663 14.5116 8.59163 13.055 8.15663 11.665C4.41997 12.7266 2.0283 14.3383 2.0283 15.9983C2.0283 17.6583 4.41997 19.27 8.15663 20.3316ZM26.2133 11.2566C25.2966 11.055 24.3216 10.885 23.2966 10.75C23.9739 11.8178 24.6066 12.9132 25.1933 14.0333C25.59 13.08 25.93 12.15 26.2133 11.2566ZM27.8433 11.665C27.4083 13.055 26.8433 14.5116 26.16 15.9983C26.8433 17.485 27.4083 18.9416 27.8433 20.3316C31.58 19.27 33.9716 17.6583 33.9716 15.9983C33.9716 14.3383 31.58 12.7266 27.8433 11.665ZM18 19.1333C17.5885 19.1333 17.181 19.0523 16.8009 18.8948C16.4207 18.7373 16.0753 18.5065 15.7844 18.2156C15.4934 17.9246 15.2626 17.5792 15.1051 17.1991C14.9477 16.8189 14.8666 16.4114 14.8666 16C14.8666 15.5885 14.9477 15.1811 15.1051 14.8009C15.2626 14.4207 15.4934 14.0753 15.7844 13.7844C16.0753 13.4934 16.4207 13.2626 16.8009 13.1052C17.181 12.9477 17.5885 12.8666 18 12.8666C18.831 12.8666 19.628 13.1968 20.2156 13.7844C20.8032 14.372 21.1333 15.169 21.1333 16C21.1333 16.831 20.8032 17.628 20.2156 18.2156C19.628 18.8032 18.831 19.1333 18 19.1333Z"
                            fill="#9CA3AF"></path>
                    </svg>