<svg width="48" height="29" viewBox="0 0 48 29" fill="none" xmlns="http://www.w3.org/2000/svg">
<path fill-rule="evenodd" clip-rule="evenodd"
d="M24 0C17.6 0 13.6 3.16364 12 9.49091C14.4 6.32727 17.2 5.14091 20.4 5.93182C22.2258 6.38264 23.5307 7.69291 24.9751 9.14203C27.328 11.5033 30.0516 14.2364 36 14.2364C42.4 14.2364 46.4 11.0727 48 4.74545C45.6 7.90909 42.8 9.09545 39.6 8.30455C37.7742 7.85373 36.4693 6.54345 35.0249 5.09433C32.672 2.73303 29.9484 0 24 0ZM12 14.2364C5.6 14.2364 1.6 17.4 0 23.7273C2.4 20.5636 5.2 19.3773 8.4 20.1682C10.2258 20.6199 11.5307 21.9293 12.9751 23.3784C15.328 25.7397 18.0516 28.4727 24 28.4727C30.4 28.4727 34.4 25.3091 36 18.9818C33.6 22.1455 30.8 23.3318 27.6 22.5409C25.7742 22.0901 24.4693 20.7798 23.0249 19.3307C20.672 16.9694 17.9484 14.2364 12 14.2364Z"
fill="#9CA3AF"></path>
</svg>